<?xml version="1.0" encoding="UTF-8" standalone="no"?>
<!-- Created with Inkscape (http://www.inkscape.org/) -->

<svg
   width="793.70081"
   height="1122.5197"
   id="svg2"
   sodipodi:version="0.32"
   inkscape:version="1.3.2 (091e20e, 2023-11-25, custom)"
   sodipodi:docname="svg-batch-petty-cash-vouchers.svg"
   inkscape:export-filename="svg-batch-petty-cash-vouchers.png"
   inkscape:export-xdpi="90"
   inkscape:export-ydpi="90"
   inkscape:output_extension="org.inkscape.output.svg.inkscape"
   version="1.1"
   viewBox="0 0 744.09448 1052.3622"
   xmlns:inkscape="http://www.inkscape.org/namespaces/inkscape"
   xmlns:sodipodi="http://sodipodi.sourceforge.net/DTD/sodipodi-0.dtd"
   xmlns:xlink="http://www.w3.org/1999/xlink"
   xmlns="http://www.w3.org/2000/svg"
   xmlns:svg="http://www.w3.org/2000/svg"
   xmlns:rdf="http://www.w3.org/1999/02/22-rdf-syntax-ns#"
   xmlns:cc="http://creativecommons.org/ns#"
   xmlns:dc="http://purl.org/dc/elements/1.1/">
  <defs
     id="defs4">
    <radialGradient
       gradientUnits="userSpaceOnUse"
       gradientTransform="matrix(1,0,0,0.315389,-150.5789,-84.07925)"
       r="208.83165"
       fy="229.86218"
       fx="416.5"
       cy="229.86218"
       cx="416.5"
       id="radialGradient3111"
       xlink:href="#linearGradient3105"
       inkscape:collect="always" />
    <linearGradient
       id="linearGradient3105">
      <stop
         id="stop3107"
         offset="0"
         style="stop-color:#ea9ccf;stop-opacity:1;" />
      <stop
         style="stop-color:#9ceaea;stop-opacity:0.49803922;"
         offset="0.80357140"
         id="stop3113" />
      <stop
         id="stop3115"
         offset="1.0000000"
         style="stop-color:#98c6ac;stop-opacity:0.24705882;" />
      <stop
         id="stop3109"
         offset="1.0000000"
         style="stop-color:#c9479c;stop-opacity:0.00000000;" />
    </linearGradient>
    <radialGradient
       inkscape:collect="always"
       xlink:href="#linearGradient3105"
       id="radialGradient2631"
       gradientUnits="userSpaceOnUse"
       gradientTransform="matrix(1,0,0,0.315389,0,157.3661)"
       cx="416.5"
       cy="229.86218"
       fx="416.5"
       fy="229.86218"
       r="208.83165" />
  </defs>
  <sodipodi:namedview
     id="base"
     pagecolor="#ffffff"
     bordercolor="#666666"
     borderopacity="1.0"
     inkscape:pageopacity="0.0"
     inkscape:pageshadow="2"
     inkscape:zoom="2"
     inkscape:cx="430.25"
     inkscape:cy="500.25"
     inkscape:document-units="px"
     inkscape:current-layer="layer1"
     inkscape:window-width="1920"
     inkscape:window-height="991"
     inkscape:window-x="-9"
     inkscape:window-y="-9"
     showgrid="false"
     inkscape:window-maximized="1"
     inkscape:showpageshadow="2"
     inkscape:pagecheckerboard="0"
     inkscape:deskcolor="#d1d1d1" />
  <metadata
     id="metadata7">
    <rdf:RDF>
      <cc:Work
         rdf:about="">
        <dc:format>image/svg+xml</dc:format>
        <dc:type
           rdf:resource="http://purl.org/dc/dcmitype/StillImage" />
      </cc:Work>
    </rdf:RDF>
  </metadata>
  <g
     inkscape:label="Layer 1"
     inkscape:groupmode="layer"
     id="layer1">
    <rect
       style="opacity:1;fill:#e8b414;fill-opacity:0.0592105;fill-rule:nonzero;stroke:#140c1e;stroke-width:0.61799997;stroke-miterlimit:4;stroke-dasharray:none;stroke-opacity:0.97368421"
       id="rect1439"
       width="330"
       height="176"
       x="18"
       y="288.36218" />
    <text
       xml:space="preserve"
       style="font-style:normal;font-variant:normal;font-weight:normal;font-stretch:normal;line-height:0%;font-family:'Comic Sans MS';text-align:start;writing-mode:lr-tb;text-anchor:start;fill:#000000;fill-opacity:1;stroke:none;stroke-width:1px;stroke-linecap:butt;stroke-linejoin:miter;stroke-opacity:1"
       x="113.23948"
       y="241.91394"
       id="text2169"
       transform="scale(0.785526,1.273032)"><tspan
         sodipodi:role="line"
         id="tspan2171"
         x="113.23948"
         y="241.91394"
         style="font-size:16.0894px;line-height:1">Nutsman Hardewarewinkel</tspan></text>
    <text
       xml:space="preserve"
       style="font-style:normal;font-variant:normal;font-weight:normal;font-stretch:normal;line-height:0%;font-family:'Comic Sans MS';text-align:start;writing-mode:lr-tb;text-anchor:start;fill:#000000;fill-opacity:1;stroke:none;stroke-width:1px;stroke-linecap:butt;stroke-linejoin:miter;stroke-opacity:1"
       x="96.400589"
       y="290.47452"
       id="text2173"
       transform="scale(0.892215,1.120807)"><tspan
         sodipodi:role="line"
         id="tspan2175"
         x="96.400589"
         y="290.47452"
         style="font-size:13.22px;line-height:1">Kleinkas Bewysstuknr. KKB001</tspan></text>
    <text
       xml:space="preserve"
       style="font-style:normal;font-variant:normal;font-weight:normal;font-stretch:normal;line-height:0%;font-family:'Comic Sans MS';text-align:start;writing-mode:lr-tb;text-anchor:start;fill:#000000;fill-opacity:1;stroke:none;stroke-width:1px;stroke-linecap:butt;stroke-linejoin:miter;stroke-opacity:1"
       x="206.5"
       y="341.36218"
       id="text2177"><tspan
         sodipodi:role="line"
         id="tspan2179"
         x="206.5"
         y="341.36218"
         style="font-size:12px;line-height:1">Datum:</tspan></text>
    <text
       xml:space="preserve"
       style="font-style:normal;font-variant:normal;font-weight:normal;font-stretch:normal;line-height:0%;font-family:'Comic Sans MS';text-align:start;writing-mode:lr-tb;text-anchor:start;fill:#000000;fill-opacity:1;stroke:none;stroke-width:1px;stroke-linecap:butt;stroke-linejoin:miter;stroke-opacity:1"
       x="316.45142"
       y="342.36218"
       id="text2181"
       transform="skewX(-11.451559)"><tspan
         sodipodi:role="line"
         id="tspan2183"
         x="316.45142"
         y="342.36218"
         style="font-size:12px;line-height:1">31 Maart 2024</tspan></text>
    <text
       xml:space="preserve"
       style="font-style:normal;font-variant:normal;font-weight:normal;font-stretch:normal;line-height:0%;font-family:'Comic Sans MS';text-align:start;writing-mode:lr-tb;text-anchor:start;fill:#000000;fill-opacity:1;stroke:none;stroke-width:1px;stroke-linecap:butt;stroke-linejoin:miter;stroke-opacity:1"
       x="28"
       y="433.36218"
       id="text2185"><tspan
         sodipodi:role="line"
         id="tspan2187"
         x="28"
         y="433.36218"
         style="font-size:12px;line-height:1">Rekening:</tspan></text>
    <text
       xml:space="preserve"
       style="font-style:normal;font-variant:normal;font-weight:normal;font-stretch:normal;line-height:0%;font-family:'Comic Sans MS';text-align:start;writing-mode:lr-tb;text-anchor:start;fill:#000000;fill-opacity:1;stroke:none;stroke-width:1px;stroke-linecap:butt;stroke-linejoin:miter;stroke-opacity:1"
       x="27"
       y="457.36218"
       id="text2189"><tspan
         sodipodi:role="line"
         id="tspan2191"
         x="27"
         y="457.36218"
         style="font-size:12px;line-height:1">Kleinkassier:</tspan></text>
    <text
       xml:space="preserve"
       style="font-style:normal;font-variant:normal;font-weight:normal;font-stretch:normal;line-height:0%;font-family:'Comic Sans MS';text-align:start;writing-mode:lr-tb;text-anchor:start;fill:#000000;fill-opacity:1;stroke:none;stroke-width:1px;stroke-linecap:butt;stroke-linejoin:miter;stroke-opacity:1"
       x="193.5"
       y="455.86218"
       id="text2193"><tspan
         sodipodi:role="line"
         id="tspan2195"
         x="193.5"
         y="455.86218"
         style="font-size:12px;line-height:1">Goedgekeur:</tspan></text>
    <path
       style="fill:none;fill-opacity:0.75;fill-rule:evenodd;stroke:#000000;stroke-width:0.93136722px;stroke-linecap:butt;stroke-linejoin:miter;stroke-opacity:1"
       d="m 22.848569,365.85567 c 322.460661,0 322.460661,0 322.460661,0 l -2.25499,-0.0962"
       id="path2237"
       inkscape:connector-curvature="0" />
    <path
       style="fill:none;fill-opacity:0.75;fill-rule:evenodd;stroke:#000000;stroke-width:0.94287044px;stroke-linecap:butt;stroke-linejoin:miter;stroke-opacity:1"
       d="m 281.79698,427.55758 c 63.56384,0 63.56384,0 63.56384,0 l -0.44452,0.5"
       id="path2247"
       inkscape:connector-curvature="0" />
    <text
       xml:space="preserve"
       style="font-style:normal;font-variant:normal;font-weight:normal;font-stretch:normal;line-height:0%;font-family:'Comic Sans MS';text-align:start;writing-mode:lr-tb;text-anchor:start;fill:#000000;fill-opacity:1;stroke:none;stroke-width:1px;stroke-linecap:butt;stroke-linejoin:miter;stroke-opacity:1"
       x="558.1098"
       y="348.00638"
       id="text2329"
       transform="matrix(0.825366,0,-0.512856,1.211584,0,0)"><tspan
         sodipodi:role="line"
         id="tspan2331"
         x="558.1098"
         y="348.00638"
         style="font-size:12.9815px;line-height:1">------46.00</tspan></text>
    <path
       style="fill:none;fill-opacity:0.75;fill-rule:evenodd;stroke:#000000;stroke-width:2.14064503px;stroke-linecap:butt;stroke-linejoin:miter;stroke-opacity:1"
       d="m 20.259457,345.55758 c 327.638883,0 327.638883,0 327.638883,0 l -2.29121,0.5"
       id="path2373"
       inkscape:connector-curvature="0" />
    <path
       style="fill:none;fill-opacity:0.75;fill-rule:evenodd;stroke:#000000;stroke-width:2.13634968px;stroke-linecap:butt;stroke-linejoin:miter;stroke-opacity:1"
       d="m 19.416258,405.55758 c 326.325282,0 326.325282,0 326.325282,0 l -2.28201,0.5"
       id="path2375"
       inkscape:connector-curvature="0" />
    <path
       style="fill:none;fill-opacity:0.75;fill-rule:evenodd;stroke:#000000;stroke-width:0.76574206px;stroke-linecap:butt;stroke-linejoin:miter;stroke-opacity:1"
       d="M 19.666408,405.93151 C 347.49139,364.68365 347.49139,364.68365 347.49139,364.68365 l -2.46932,0.24676"
       id="path3123"
       inkscape:connector-curvature="0" />
    <path
       style="fill:none;fill-opacity:0.75;fill-rule:evenodd;stroke:#000000;stroke-width:0.73625231px;stroke-linecap:butt;stroke-linejoin:miter;stroke-opacity:1"
       d="m 271.74477,446.48658 c -4.92629,0 1.83309,6.28398 1.83309,9.4628 0,3.68398 -7.38088,1.64906 -8.24892,-0.59143 -1.20623,-3.11341 10.21637,0.33906 14.66474,1.77428 0.58059,0.18732 -0.36561,-10.88157 -1.83309,-11.82848 -4.89122,-3.15619 -5.47098,9.60607 13.74819,6.50565 5.59061,-0.90186 -3.86765,-1.00248 -6.41582,-0.59142 -4.44871,0.71767 3.2603,2.6276 7.33236,0 3.00898,-1.94162 -7.78681,2.29116 -11.91509,2.95712 -1.94631,0.31397 -1.47878,6.18635 6.41582,2.3657 2.55174,-1.23493 0.4942,-4.45885 2.74964,-5.91424 1.1024,-0.71135 -3.06315,9.27595 2.74963,1.77428 1.52794,-1.97187 3.58749,0.72657 6.41583,1.18283 3.67046,0.59212 2.62574,-5.47307 10.08201,-3.54853 10.06716,2.59842 4.25193,14.67593 16.49783,4.13996 4.81637,-4.14383 8.14636,-7.95114 0,-5.32282 -6.91068,2.22965 -14.4329,6.76398 -20.16402,7.68852 -3.05851,0.4934 0.86377,-10.57752 0.91655,-10.64563 2.44007,-3.14903 15.60753,-0.78293 19.24747,0 1.30277,0.28022 0.79621,-1.02753 0.91654,-1.18284"
       id="path2665"
       inkscape:connector-curvature="0" />
    <path
       style="fill:none;fill-opacity:0.75;fill-rule:evenodd;stroke:#000000;stroke-width:1.02908659px;stroke-linecap:butt;stroke-linejoin:miter;stroke-opacity:1"
       d="m 280.47612,426.39422 c -0.48639,-80.06647 -0.48639,-80.06647 -0.48639,-80.06647 l -0.46945,0.56168"
       id="path2669"
       inkscape:connector-curvature="0" />
    <text
       xml:space="preserve"
       style="font-style:normal;font-variant:normal;font-weight:normal;font-stretch:normal;line-height:0%;font-family:'Comic Sans MS';text-align:start;writing-mode:lr-tb;text-anchor:start;fill:#000000;fill-opacity:1;stroke:none;stroke-width:1px;stroke-linecap:butt;stroke-linejoin:miter;stroke-opacity:1"
       x="99.820999"
       y="361.81238"
       id="text2671"
       transform="skewX(-11.451559)"><tspan
         sodipodi:role="line"
         id="tspan2673"
         x="99.820999"
         y="361.81238"
         style="font-size:12px;line-height:1">Waltons - Papier (BTW Inkl.)</tspan></text>
    <text
       xml:space="preserve"
       style="font-style:normal;font-variant:normal;font-weight:normal;font-stretch:normal;line-height:0%;font-family:'Comic Sans MS';text-align:start;writing-mode:lr-tb;text-anchor:start;fill:#000000;fill-opacity:1;stroke:none;stroke-width:1px;stroke-linecap:butt;stroke-linejoin:miter;stroke-opacity:1"
       x="173.1088"
       y="434.81238"
       id="text2675"
       transform="skewX(-11.451559)"><tspan
         sodipodi:role="line"
         id="tspan2677"
         x="173.1088"
         y="434.81238"
         style="font-size:12px;line-height:1">Skryfbehoeftes - Rek nr. 230</tspan></text>
    <text
       xml:space="preserve"
       style="font-style:normal;font-variant:normal;font-weight:normal;font-stretch:normal;line-height:0%;font-family:'Comic Sans MS';text-align:start;writing-mode:lr-tb;text-anchor:start;fill:#000000;fill-opacity:1;stroke:none;stroke-width:1px;stroke-linecap:butt;stroke-linejoin:miter;stroke-opacity:1"
       x="527.70343"
       y="297.93741"
       id="text2683"
       transform="matrix(0.825366,0,-0.512856,1.211584,0,0)"><tspan
         sodipodi:role="line"
         id="tspan2685"
         x="527.70343"
         y="297.93741"
         style="font-size:12.9815px;line-height:1">------46.00</tspan></text>
    <path
       style="fill:none;fill-opacity:0.75;fill-rule:evenodd;stroke:#000000;stroke-width:0.7816546px;stroke-linecap:butt;stroke-linejoin:miter;stroke-opacity:1"
       d="m 79.687593,438.91027 c 227.124807,0 227.124807,0 227.124807,0 l -1.58829,-0.0962"
       id="path2687"
       inkscape:connector-curvature="0" />
    <text
       xml:space="preserve"
       style="font-style:normal;font-variant:normal;font-weight:normal;font-stretch:normal;line-height:0%;font-family:'Comic Sans MS';text-align:start;writing-mode:lr-tb;text-anchor:start;fill:#000000;fill-opacity:1;stroke:none;stroke-width:1px;stroke-linecap:butt;stroke-linejoin:miter;stroke-opacity:1"
       x="241.12598"
       y="420.82117"
       id="text2689"><tspan
         sodipodi:role="line"
         id="tspan2691"
         x="241.12598"
         y="420.82117"
         style="font-size:12px;line-height:1">Totaal:</tspan></text>
    <path
       style="fill:none;fill-opacity:0.75;fill-rule:evenodd;stroke:#000000;stroke-width:0.65385568px;stroke-linecap:butt;stroke-linejoin:miter;stroke-opacity:1"
       d="m 146.05596,456.48676 c 3.67051,0.14113 8.30883,-6.33235 13.20285,-9.50907 5.67173,-3.68155 8.0382,-1.43652 5.23557,0.82736 -3.89457,3.14591 -7.09003,-0.63152 -8.19481,-2.19324 -0.14419,-0.20383 -16.48051,10.88486 -16.84496,11.87319 -1.21482,3.29424 18.86554,-9.44299 -0.22762,-6.89523 -5.55394,0.7411 1.33831,1.11263 3.86977,0.77484 4.41957,-0.58975 1.61618,-2.71927 -5.46321,-0.21006 -5.2312,1.85413 9.32921,-2.06657 13.43041,-2.61382 1.93355,-0.258 10.62613,-6.1399 -1.13815,-2.54794 -3.80252,1.16101 -7.23294,4.44175 -11.15409,5.83156 -1.91656,0.6793 16.56325,-9.18207 0.68292,-1.85188 -4.17427,1.92679 -1.55437,-0.82887 -2.95927,-1.36586 -1.82319,-0.69688 -10.38256,5.39423 -12.97514,3.25735 -3.5004,-2.88512 19.42658,-14.78806 -5.91849,-4.60987 -9.9683,4.00311 -18.31103,7.71251 -8.19485,5.31931 8.58174,-2.0302 21.16733,-6.34603 26.86087,-7.10577 3.03846,-0.40545 -16.9284,10.54579 -17.07259,10.61234 -6.6662,3.07705 -12.83428,0.33528 -14.34094,-0.55142 -0.53927,-0.31735 -2.17521,1.00405 -2.50397,1.15581"
       id="path2693"
       inkscape:connector-curvature="0" />
    <rect
       style="opacity:1;fill:#e8b414;fill-opacity:0.0592105;fill-rule:nonzero;stroke:#140c1e;stroke-width:0.61799997;stroke-miterlimit:4;stroke-dasharray:none;stroke-opacity:0.97368421"
       id="rect2695"
       width="330"
       height="176"
       x="355.67017"
       y="289.36218" />
    <text
       xml:space="preserve"
       style="font-style:normal;font-variant:normal;font-weight:normal;font-stretch:normal;line-height:0%;font-family:'Comic Sans MS';text-align:start;writing-mode:lr-tb;text-anchor:start;fill:#000000;fill-opacity:1;stroke:none;stroke-width:1px;stroke-linecap:butt;stroke-linejoin:miter;stroke-opacity:1"
       x="543.10437"
       y="242.6994"
       id="text2697"
       transform="scale(0.785526,1.273032)"><tspan
         sodipodi:role="line"
         id="tspan2699"
         x="543.10437"
         y="242.6994"
         style="font-size:16.0894px;line-height:1">Nutsman Hardewarewinkel</tspan></text>
    <text
       xml:space="preserve"
       style="font-style:normal;font-variant:normal;font-weight:normal;font-stretch:normal;line-height:0%;font-family:'Comic Sans MS';text-align:start;writing-mode:lr-tb;text-anchor:start;fill:#000000;fill-opacity:1;stroke:none;stroke-width:1px;stroke-linecap:butt;stroke-linejoin:miter;stroke-opacity:1"
       x="474.86371"
       y="291.36703"
       id="text2701"
       transform="scale(0.892215,1.120807)"><tspan
         sodipodi:role="line"
         id="tspan2703"
         x="474.86371"
         y="291.36703"
         style="font-size:13.22px;line-height:1">Kleinkas Bewysstuknr. KKB002</tspan></text>
    <text
       xml:space="preserve"
       style="font-style:normal;font-variant:normal;font-weight:normal;font-stretch:normal;line-height:0%;font-family:'Comic Sans MS';text-align:start;writing-mode:lr-tb;text-anchor:start;fill:#000000;fill-opacity:1;stroke:none;stroke-width:1px;stroke-linecap:butt;stroke-linejoin:miter;stroke-opacity:1"
       x="543.67017"
       y="341.86218"
       id="text2705"><tspan
         sodipodi:role="line"
         id="tspan2707"
         x="543.67017"
         y="341.86218"
         style="font-size:12px;line-height:1">Datum:</tspan></text>
    <text
       xml:space="preserve"
       style="font-style:normal;font-variant:normal;font-weight:normal;font-stretch:normal;line-height:0%;font-family:'Comic Sans MS';text-align:start;writing-mode:lr-tb;text-anchor:start;fill:#000000;fill-opacity:1;stroke:none;stroke-width:1px;stroke-linecap:butt;stroke-linejoin:miter;stroke-opacity:1"
       x="654.32416"
       y="343.36218"
       id="text2709"
       transform="skewX(-11.451559)"><tspan
         sodipodi:role="line"
         id="tspan2711"
         x="654.32416"
         y="343.36218"
         style="font-size:12px;line-height:1">31 Maart 2024</tspan></text>
    <text
       xml:space="preserve"
       style="font-style:normal;font-variant:normal;font-weight:normal;font-stretch:normal;line-height:0%;font-family:'Comic Sans MS';text-align:start;writing-mode:lr-tb;text-anchor:start;fill:#000000;fill-opacity:1;stroke:none;stroke-width:1px;stroke-linecap:butt;stroke-linejoin:miter;stroke-opacity:1"
       x="364.67017"
       y="436.86218"
       id="text2713"><tspan
         sodipodi:role="line"
         id="tspan2715"
         x="364.67017"
         y="436.86218"
         style="font-size:12px;line-height:1">Rekening:</tspan></text>
    <text
       xml:space="preserve"
       style="font-style:normal;font-variant:normal;font-weight:normal;font-stretch:normal;line-height:0%;font-family:'Comic Sans MS';text-align:start;writing-mode:lr-tb;text-anchor:start;fill:#000000;fill-opacity:1;stroke:none;stroke-width:1px;stroke-linecap:butt;stroke-linejoin:miter;stroke-opacity:1"
       x="364.67017"
       y="458.36218"
       id="text2717"><tspan
         sodipodi:role="line"
         id="tspan2719"
         x="364.67017"
         y="458.36218"
         style="font-size:12px;line-height:1">Kleinkassier:</tspan></text>
    <text
       xml:space="preserve"
       style="font-style:normal;font-variant:normal;font-weight:normal;font-stretch:normal;line-height:0%;font-family:'Comic Sans MS';text-align:start;writing-mode:lr-tb;text-anchor:start;fill:#000000;fill-opacity:1;stroke:none;stroke-width:1px;stroke-linecap:butt;stroke-linejoin:miter;stroke-opacity:1"
       x="531.67017"
       y="455.86218"
       id="text2721"><tspan
         sodipodi:role="line"
         id="tspan2723"
         x="531.67017"
         y="455.86218"
         style="font-size:12px;line-height:1">Goedgekeur:</tspan></text>
    <path
       style="fill:none;fill-opacity:0.75;fill-rule:evenodd;stroke:#000000;stroke-width:0.93136722px;stroke-linecap:butt;stroke-linejoin:miter;stroke-opacity:1"
       d="m 360.51874,366.85567 c 322.46066,0 322.46066,0 322.46066,0 l -2.25499,-0.0962"
       id="path2725"
       inkscape:connector-curvature="0" />
    <path
       style="fill:none;fill-opacity:0.75;fill-rule:evenodd;stroke:#000000;stroke-width:0.94287044px;stroke-linecap:butt;stroke-linejoin:miter;stroke-opacity:1"
       d="m 619.46715,428.55758 c 63.56384,0 63.56384,0 63.56384,0 l -0.44452,0.5"
       id="path2727"
       inkscape:connector-curvature="0" />
    <text
       xml:space="preserve"
       style="font-style:normal;font-variant:normal;font-weight:normal;font-stretch:normal;line-height:0%;font-family:'Comic Sans MS';text-align:start;writing-mode:lr-tb;text-anchor:start;fill:#000000;fill-opacity:1;stroke:none;stroke-width:1px;stroke-linecap:butt;stroke-linejoin:miter;stroke-opacity:1"
       x="967.73853"
       y="348.83185"
       id="text2729"
       transform="matrix(0.825366,0,-0.512856,1.211584,0,0)"><tspan
         sodipodi:role="line"
         id="tspan2731"
         x="967.73853"
         y="348.83185"
         style="font-size:12.9815px;line-height:1">------10.00</tspan></text>
    <path
       style="fill:none;fill-opacity:0.75;fill-rule:evenodd;stroke:#000000;stroke-width:2.14064503px;stroke-linecap:butt;stroke-linejoin:miter;stroke-opacity:1"
       d="m 357.92963,346.55758 c 327.63888,0 327.63888,0 327.63888,0 l -2.29121,0.5"
       id="path2733"
       inkscape:connector-curvature="0" />
    <path
       style="fill:none;fill-opacity:0.75;fill-rule:evenodd;stroke:#000000;stroke-width:2.13634968px;stroke-linecap:butt;stroke-linejoin:miter;stroke-opacity:1"
       d="m 357.08643,406.55758 c 326.32528,0 326.32528,0 326.32528,0 l -2.28201,0.5"
       id="path2735"
       inkscape:connector-curvature="0" />
    <path
       style="fill:none;fill-opacity:0.75;fill-rule:evenodd;stroke:#000000;stroke-width:0.76574206px;stroke-linecap:butt;stroke-linejoin:miter;stroke-opacity:1"
       d="m 357.33658,406.93151 c 327.82498,-41.24786 327.82498,-41.24786 327.82498,-41.24786 l -2.46932,0.24676"
       id="path2737"
       inkscape:connector-curvature="0" />
    <path
       style="fill:none;fill-opacity:0.75;fill-rule:evenodd;stroke:#000000;stroke-width:0.73625231px;stroke-linecap:butt;stroke-linejoin:miter;stroke-opacity:1"
       d="m 609.41494,447.48658 c -4.92629,0 1.83309,6.28398 1.83309,9.4628 0,3.68398 -7.38088,1.64906 -8.24892,-0.59143 -1.20623,-3.11341 10.21637,0.33906 14.66474,1.77428 0.58059,0.18732 -0.36561,-10.88157 -1.83309,-11.82848 -4.89122,-3.15619 -5.47098,9.60607 13.74819,6.50565 5.59061,-0.90186 -3.86765,-1.00248 -6.41582,-0.59142 -4.44871,0.71767 3.2603,2.6276 7.33236,0 3.00898,-1.94162 -7.78681,2.29116 -11.91509,2.95712 -1.94631,0.31397 -1.47878,6.18635 6.41582,2.3657 2.55174,-1.23493 0.4942,-4.45885 2.74964,-5.91424 1.1024,-0.71135 -3.06315,9.27595 2.74963,1.77428 1.52794,-1.97187 3.58749,0.72657 6.41583,1.18283 3.67046,0.59212 2.62574,-5.47307 10.08201,-3.54853 10.06716,2.59842 4.25193,14.67593 16.49783,4.13996 4.81637,-4.14383 8.14636,-7.95114 0,-5.32282 -6.91068,2.22965 -14.4329,6.76398 -20.16402,7.68852 -3.05851,0.4934 0.86377,-10.57752 0.91655,-10.64563 2.44007,-3.14903 15.60753,-0.78293 19.24747,0 1.30277,0.28022 0.79621,-1.02753 0.91654,-1.18284"
       id="path2739"
       inkscape:connector-curvature="0" />
    <path
       style="fill:none;fill-opacity:0.75;fill-rule:evenodd;stroke:#000000;stroke-width:1.02908659px;stroke-linecap:butt;stroke-linejoin:miter;stroke-opacity:1"
       d="m 618.14629,427.39422 c -0.48639,-80.06647 -0.48639,-80.06647 -0.48639,-80.06647 l -0.46945,0.56168"
       id="path2741"
       inkscape:connector-curvature="0" />
    <text
       xml:space="preserve"
       style="font-style:normal;font-variant:normal;font-weight:normal;font-stretch:normal;line-height:0%;font-family:'Comic Sans MS';text-align:start;writing-mode:lr-tb;text-anchor:start;fill:#000000;fill-opacity:1;stroke:none;stroke-width:1px;stroke-linecap:butt;stroke-linejoin:miter;stroke-opacity:1"
       x="437.69376"
       y="362.81238"
       id="text2743"
       transform="skewX(-11.451559)"><tspan
         sodipodi:role="line"
         id="tspan2745"
         x="437.69376"
         y="362.81238"
         style="font-size:12px;line-height:1">ABC Diensstasie - Herstel Papwiel</tspan></text>
    <text
       xml:space="preserve"
       style="font-style:normal;font-variant:normal;font-weight:normal;font-stretch:normal;line-height:0%;font-family:'Comic Sans MS';text-align:start;writing-mode:lr-tb;text-anchor:start;fill:#000000;fill-opacity:1;stroke:none;stroke-width:1px;stroke-linecap:butt;stroke-linejoin:miter;stroke-opacity:1"
       x="518.76819"
       y="430.24332"
       id="text2747"
       transform="matrix(0.978243,0,-0.198165,1.022241,0,0)"><tspan
         sodipodi:role="line"
         id="tspan2749"
         x="518.76819"
         y="430.24332"
         style="font-size:11.7389px;line-height:1">Motorboertuie Onderhoud - Rek 210-020</tspan></text>
    <text
       xml:space="preserve"
       style="font-style:normal;font-variant:normal;font-weight:normal;font-stretch:normal;line-height:0%;font-family:'Comic Sans MS';text-align:start;writing-mode:lr-tb;text-anchor:start;fill:#000000;fill-opacity:1;stroke:none;stroke-width:1px;stroke-linecap:butt;stroke-linejoin:miter;stroke-opacity:1"
       x="937.33215"
       y="298.76285"
       id="text2751"
       transform="matrix(0.825366,0,-0.512856,1.211584,0,0)"><tspan
         sodipodi:role="line"
         id="tspan2753"
         x="937.33215"
         y="298.76285"
         style="font-size:12.9815px;line-height:1">------10.00</tspan></text>
    <path
       style="fill:none;fill-opacity:0.75;fill-rule:evenodd;stroke:#000000;stroke-width:0.98449409px;stroke-linecap:butt;stroke-linejoin:miter;stroke-opacity:1"
       d="m 417.85316,442.68914 c 225.13402,0 225.13402,0 225.13402,0 l -1.57438,-0.15392"
       id="path2755"
       inkscape:connector-curvature="0" />
    <text
       xml:space="preserve"
       style="font-style:normal;font-variant:normal;font-weight:normal;font-stretch:normal;line-height:0%;font-family:'Comic Sans MS';text-align:start;writing-mode:lr-tb;text-anchor:start;fill:#000000;fill-opacity:1;stroke:none;stroke-width:1px;stroke-linecap:butt;stroke-linejoin:miter;stroke-opacity:1"
       x="578.79614"
       y="421.82117"
       id="text2757"><tspan
         sodipodi:role="line"
         id="tspan2759"
         x="578.79614"
         y="421.82117"
         style="font-size:12px;line-height:1">Totaal:</tspan></text>
    <path
       style="fill:none;fill-opacity:0.75;fill-rule:evenodd;stroke:#000000;stroke-width:0.65385568px;stroke-linecap:butt;stroke-linejoin:miter;stroke-opacity:1"
       d="m 482.22613,457.48676 c 3.67051,0.14113 8.30883,-6.33235 13.20285,-9.50907 5.67173,-3.68155 8.0382,-1.43652 5.23557,0.82736 -3.89457,3.14591 -7.09003,-0.63152 -8.19481,-2.19324 -0.14419,-0.20383 -16.48051,10.88486 -16.84496,11.87319 -1.21482,3.29424 18.86554,-9.44299 -0.22762,-6.89523 -5.55394,0.7411 1.33831,1.11263 3.86977,0.77484 4.41957,-0.58975 1.61618,-2.71927 -5.46321,-0.21006 -5.2312,1.85413 9.32921,-2.06657 13.43041,-2.61382 1.93355,-0.258 10.62613,-6.1399 -1.13815,-2.54794 -3.80252,1.16101 -7.23294,4.44175 -11.15409,5.83156 -1.91656,0.6793 16.56325,-9.18207 0.68292,-1.85188 -4.17427,1.92679 -1.55437,-0.82887 -2.95927,-1.36586 -1.82319,-0.69688 -10.38256,5.39423 -12.97514,3.25735 -3.5004,-2.88512 19.42658,-14.78806 -5.91849,-4.60987 -9.9683,4.00311 -18.31103,7.71251 -8.19485,5.31931 8.58174,-2.0302 21.16733,-6.34603 26.86087,-7.10577 3.03846,-0.40545 -16.9284,10.54579 -17.07259,10.61234 -6.6662,3.07705 -12.83428,0.33528 -14.34094,-0.55142 -0.53927,-0.31735 -2.17521,1.00405 -2.50397,1.15581"
       id="path2761"
       inkscape:connector-curvature="0" />
  </g>
</svg>
