<?xml version="1.0" encoding="UTF-8" standalone="no"?>
<svg
   version="1.1"
   width="24"
   height="24"
   viewBox="0 0 24 24"
   id="svg4"
   sodipodi:docname="batchsetup.svg"
   inkscape:version="1.1.1 (3bf5ae0d25, 2021-09-20)"
   xmlns:inkscape="http://www.inkscape.org/namespaces/inkscape"
   xmlns:sodipodi="http://sodipodi.sourceforge.net/DTD/sodipodi-0.dtd"
   xmlns="http://www.w3.org/2000/svg"
   xmlns:svg="http://www.w3.org/2000/svg">
  <defs
     id="defs8" />
  <sodipodi:namedview
     id="namedview6"
     pagecolor="#ffffff"
     bordercolor="#666666"
     borderopacity="1.0"
     inkscape:pageshadow="2"
     inkscape:pageopacity="0.0"
     inkscape:pagecheckerboard="0"
     showgrid="false"
     inkscape:zoom="21.333333"
     inkscape:cx="10.617188"
     inkscape:cy="12.023438"
     inkscape:window-width="1366"
     inkscape:window-height="697"
     inkscape:window-x="-8"
     inkscape:window-y="-8"
     inkscape:window-maximized="1"
     inkscape:current-layer="svg4" />
  <path
     d="M1,9H3V7H1V9M1,13H3V11H1V13M1,5H3V3A2,2 0 0,0 1,5M9,21H11V19H9V21M1,17H3V15H1V17M3,21V19H1A2,2 0 0,0 3,21M21,3H13V9H23V5A2,2 0 0,0 21,3M21,17H23V15H21V17M9,5H11V3H9V5M5,21H7V19H5V21M5,5H7V3H5V5M21,21A2,2 0 0,0 23,19H21V21M21,13H23V11H21V13M13,21H15V19H13V21M17,21H19V19H17V21Z"
     id="path2"
     style="fill:#E0115F;fill-opacity:1" />
</svg>
