<?xml version="1.0" encoding="UTF-8" standalone="no"?>
<svg
   version="1.1"
   width="24"
   height="24"
   viewBox="0 0 24 24"
   id="svg4"
   sodipodi:docname="linkoff.svg"
   inkscape:version="1.1.1 (3bf5ae0d25, 2021-09-20)"
   xmlns:inkscape="http://www.inkscape.org/namespaces/inkscape"
   xmlns:sodipodi="http://sodipodi.sourceforge.net/DTD/sodipodi-0.dtd"
   xmlns="http://www.w3.org/2000/svg"
   xmlns:svg="http://www.w3.org/2000/svg">
  <defs
     id="defs8" />
  <sodipodi:namedview
     id="namedview6"
     pagecolor="#ffffff"
     bordercolor="#666666"
     borderopacity="1.0"
     inkscape:pageshadow="2"
     inkscape:pageopacity="0.0"
     inkscape:pagecheckerboard="0"
     showgrid="false"
     inkscape:zoom="21.333333"
     inkscape:cx="11.976562"
     inkscape:cy="12.023438"
     inkscape:window-width="1366"
     inkscape:window-height="697"
     inkscape:window-x="-8"
     inkscape:window-y="-8"
     inkscape:window-maximized="1"
     inkscape:current-layer="svg4" />
  <path
     d="M17,7H13V8.9H17C18.71,8.9 20.1,10.29 20.1,12C20.1,13.43 19.12,14.63 17.79,15L19.25,16.44C20.88,15.61 22,13.95 22,12A5,5 0 0,0 17,7M16,11H13.81L15.81,13H16V11M2,4.27L5.11,7.38C3.29,8.12 2,9.91 2,12A5,5 0 0,0 7,17H11V15.1H7C5.29,15.1 3.9,13.71 3.9,12C3.9,10.41 5.11,9.1 6.66,8.93L8.73,11H8V13H10.73L13,15.27V17H14.73L18.74,21L20,19.74L3.27,3L2,4.27Z"
     id="path2"
     style="fill:#E0115F" />
</svg>
