<?xml version="1.0" encoding="UTF-8" standalone="no"?>
<svg
   version="1.1"
   width="24"
   height="24"
   viewBox="0 0 24 24"
   id="svg4"
   sodipodi:docname="TRN_1323.svg"
   inkscape:version="1.1.1 (3bf5ae0d25, 2021-09-20)"
   xmlns:inkscape="http://www.inkscape.org/namespaces/inkscape"
   xmlns:sodipodi="http://sodipodi.sourceforge.net/DTD/sodipodi-0.dtd"
   xmlns="http://www.w3.org/2000/svg"
   xmlns:svg="http://www.w3.org/2000/svg">
  <defs
     id="defs8" />
  <sodipodi:namedview
     id="namedview6"
     pagecolor="#ffffff"
     bordercolor="#666666"
     borderopacity="1.0"
     inkscape:pageshadow="2"
     inkscape:pageopacity="0.0"
     inkscape:pagecheckerboard="0"
     showgrid="false"
     inkscape:zoom="21.333333"
     inkscape:cx="11.976562"
     inkscape:cy="12.023438"
     inkscape:window-width="1366"
     inkscape:window-height="697"
     inkscape:window-x="-8"
     inkscape:window-y="-8"
     inkscape:window-maximized="1"
     inkscape:current-layer="svg4" />
  <path
     d="M12,19A2,2 0 0,0 10,21A2,2 0 0,0 12,23A2,2 0 0,0 14,21A2,2 0 0,0 12,19M6,1A2,2 0 0,0 4,3A2,2 0 0,0 6,5A2,2 0 0,0 8,3A2,2 0 0,0 6,1M6,7A2,2 0 0,0 4,9A2,2 0 0,0 6,11A2,2 0 0,0 8,9A2,2 0 0,0 6,7M6,13A2,2 0 0,0 4,15A2,2 0 0,0 6,17A2,2 0 0,0 8,15A2,2 0 0,0 6,13M18,5A2,2 0 0,0 20,3A2,2 0 0,0 18,1A2,2 0 0,0 16,3A2,2 0 0,0 18,5M12,13A2,2 0 0,0 10,15A2,2 0 0,0 12,17A2,2 0 0,0 14,15A2,2 0 0,0 12,13M18,13A2,2 0 0,0 16,15A2,2 0 0,0 18,17A2,2 0 0,0 20,15A2,2 0 0,0 18,13M18,7A2,2 0 0,0 16,9A2,2 0 0,0 18,11A2,2 0 0,0 20,9A2,2 0 0,0 18,7M12,7A2,2 0 0,0 10,9A2,2 0 0,0 12,11A2,2 0 0,0 14,9A2,2 0 0,0 12,7M12,1A2,2 0 0,0 10,3A2,2 0 0,0 12,5A2,2 0 0,0 14,3A2,2 0 0,0 12,1Z"
     id="path2"
     style="fill:#E0115F" />
</svg>
