<?xml version="1.0" encoding="UTF-8" standalone="no"?>
<svg
   version="1.1"
   width="24"
   height="24"
   viewBox="0 0 24 24"
   id="svg4"
   sodipodi:docname="TRN_32.svg"
   inkscape:version="1.1.1 (3bf5ae0d25, 2021-09-20)"
   xmlns:inkscape="http://www.inkscape.org/namespaces/inkscape"
   xmlns:sodipodi="http://sodipodi.sourceforge.net/DTD/sodipodi-0.dtd"
   xmlns="http://www.w3.org/2000/svg"
   xmlns:svg="http://www.w3.org/2000/svg">
  <defs
     id="defs8" />
  <sodipodi:namedview
     id="namedview6"
     pagecolor="#ffffff"
     bordercolor="#666666"
     borderopacity="1.0"
     inkscape:pageshadow="2"
     inkscape:pageopacity="0.0"
     inkscape:pagecheckerboard="0"
     showgrid="false"
     inkscape:zoom="21.333333"
     inkscape:cx="11.976562"
     inkscape:cy="12.023438"
     inkscape:window-width="1366"
     inkscape:window-height="697"
     inkscape:window-x="-8"
     inkscape:window-y="-8"
     inkscape:window-maximized="1"
     inkscape:current-layer="svg4" />
  <path
     d="M3,4H7A1,1 0 0,1 8,5V19A1,1 0 0,1 7,20H3A1,1 0 0,1 2,19V5A1,1 0 0,1 3,4M10,4H14A1,1 0 0,1 15,5V19A1,1 0 0,1 14,20H10A1,1 0 0,1 9,19V5A1,1 0 0,1 10,4M17,4H21A1,1 0 0,1 22,5V19A1,1 0 0,1 21,20H17A1,1 0 0,1 16,19V5A1,1 0 0,1 17,4M4,18H6V13H4V18M11,11H13V6H11V11M18,18H20V13H18V18Z"
     id="path2"
     style="fill:#000080" />
</svg>
