<?xml version="1.0" encoding="UTF-8" standalone="no"?>
<svg
   width="48"
   height="48"
   viewBox="0 0 48 48"
   version="1.1"
   id="svg4"
   sodipodi:docname="removebooks.svg"
   inkscape:version="1.1.1 (3bf5ae0d25, 2021-09-20)"
   xmlns:inkscape="http://www.inkscape.org/namespaces/inkscape"
   xmlns:sodipodi="http://sodipodi.sourceforge.net/DTD/sodipodi-0.dtd"
   xmlns="http://www.w3.org/2000/svg"
   xmlns:svg="http://www.w3.org/2000/svg">
  <defs
     id="defs8" />
  <sodipodi:namedview
     id="namedview6"
     pagecolor="#ffffff"
     bordercolor="#666666"
     borderopacity="1.0"
     inkscape:pageshadow="2"
     inkscape:pageopacity="0.0"
     inkscape:pagecheckerboard="0"
     showgrid="false"
     inkscape:zoom="10.666667"
     inkscape:cx="23.953125"
     inkscape:cy="24.046875"
     inkscape:window-width="1366"
     inkscape:window-height="697"
     inkscape:window-x="-8"
     inkscape:window-y="-8"
     inkscape:window-maximized="1"
     inkscape:current-layer="svg4" />
  <path
     d="M42 10c-2.21-.7-4.66-1-7-1-3.9 0-8.1.8-11 3-2.9-2.2-7.1-3-11-3s-8.1.8-11 3v29.3c0 .5.5 1 1 1 .2 0 .3-.1.5-.1C6.2 40.9 10.1 40 13 40c3.9 0 8.1.8 11 3 2.7-1.7 7.6-3 11-3 3.3 0 6.7.6 9.5 2.1.2.1.3.1.5.1.5 0 1-.5 1-1V12c-1.2-.9-2.5-1.5-4-2zm0 27c-2.2-.7-4.6-1-7-1-3.4 0-8.3 1.3-11 3V16c2.7-1.7 7.6-3 11-3 2.4 0 4.8.3 7 1v23z"
     id="path2"
     style="fill:#008000" />
</svg>
