<?xml version="1.0" encoding="UTF-8" standalone="no"?>
<svg
   width="48"
   height="48"
   viewBox="0 0 48 48"
   version="1.1"
   id="svg4"
   sodipodi:docname="Refresh.svg"
   inkscape:version="1.1.1 (3bf5ae0d25, 2021-09-20)"
   xmlns:inkscape="http://www.inkscape.org/namespaces/inkscape"
   xmlns:sodipodi="http://sodipodi.sourceforge.net/DTD/sodipodi-0.dtd"
   xmlns="http://www.w3.org/2000/svg"
   xmlns:svg="http://www.w3.org/2000/svg">
  <defs
     id="defs8" />
  <sodipodi:namedview
     id="namedview6"
     pagecolor="#ffffff"
     bordercolor="#666666"
     borderopacity="1.0"
     inkscape:pageshadow="2"
     inkscape:pageopacity="0.0"
     inkscape:pagecheckerboard="0"
     showgrid="false"
     inkscape:zoom="10.666667"
     inkscape:cx="23.953125"
     inkscape:cy="24.046875"
     inkscape:window-width="1366"
     inkscape:window-height="697"
     inkscape:window-x="-8"
     inkscape:window-y="-8"
     inkscape:window-maximized="1"
     inkscape:current-layer="svg4" />
  <path
     d="M24 8V2l-8 8 8 8v-6c6.63 0 12 5.37 12 12 0 2.03-.51 3.93-1.39 5.61l2.92 2.92C39.08 30.05 40 27.14 40 24c0-8.84-7.16-16-16-16zm0 28c-6.63 0-12-5.37-12-12 0-2.03.51-3.93 1.39-5.61l-2.92-2.92C8.92 17.95 8 20.86 8 24c0 8.84 7.16 16 16 16v6l8-8-8-8v6z"
     id="path2"
     style="fill:#000080" />
</svg>
