<?xml version="1.0" encoding="UTF-8" standalone="no"?>
<svg
   width="48"
   height="48"
   viewBox="0 0 48 48"
   version="1.1"
   id="svg4"
   sodipodi:docname="ExcelExport.svg"
   inkscape:version="1.1.1 (3bf5ae0d25, 2021-09-20)"
   xmlns:inkscape="http://www.inkscape.org/namespaces/inkscape"
   xmlns:sodipodi="http://sodipodi.sourceforge.net/DTD/sodipodi-0.dtd"
   xmlns="http://www.w3.org/2000/svg"
   xmlns:svg="http://www.w3.org/2000/svg">
  <defs
     id="defs8" />
  <sodipodi:namedview
     id="namedview6"
     pagecolor="#ffffff"
     bordercolor="#666666"
     borderopacity="1.0"
     inkscape:pageshadow="2"
     inkscape:pageopacity="0.0"
     inkscape:pagecheckerboard="0"
     showgrid="false"
     inkscape:zoom="10.666667"
     inkscape:cx="23.953125"
     inkscape:cy="24.046875"
     inkscape:window-width="1366"
     inkscape:window-height="697"
     inkscape:window-x="-8"
     inkscape:window-y="-8"
     inkscape:window-maximized="1"
     inkscape:current-layer="svg4" />
  <path
     d="M40 4H8C5.79 4 4 5.79 4 8v32c0 2.21 1.79 4 4 4h32c2.21 0 4-1.79 4-4V8c0-2.21-1.79-4-4-4zM16 40H8v-8h8v8zm0-12H8v-8h8v8zm0-12H8V8h8v8zm12 24h-8v-8h8v8zm0-12h-8v-8h8v8zm0-12h-8V8h8v8zm12 24h-8v-8h8v8zm0-12h-8v-8h8v8zm0-12h-8V8h8v8z"
     id="path2"
     style="fill:#000000" />
</svg>
