<?xml version="1.0" encoding="UTF-8" standalone="no"?>
<svg
   width="48"
   height="48"
   viewBox="0 0 48 48"
   version="1.1"
   id="svg4"
   sodipodi:docname="backup.svg"
   inkscape:version="1.1.1 (3bf5ae0d25, 2021-09-20)"
   xmlns:inkscape="http://www.inkscape.org/namespaces/inkscape"
   xmlns:sodipodi="http://sodipodi.sourceforge.net/DTD/sodipodi-0.dtd"
   xmlns="http://www.w3.org/2000/svg"
   xmlns:svg="http://www.w3.org/2000/svg">
  <defs
     id="defs8" />
  <sodipodi:namedview
     id="namedview6"
     pagecolor="#ffffff"
     bordercolor="#666666"
     borderopacity="1.0"
     inkscape:pageshadow="2"
     inkscape:pageopacity="0.0"
     inkscape:pagecheckerboard="0"
     showgrid="false"
     inkscape:zoom="10.666667"
     inkscape:cx="21.234375"
     inkscape:cy="24.046875"
     inkscape:window-width="1366"
     inkscape:window-height="697"
     inkscape:window-x="-8"
     inkscape:window-y="-8"
     inkscape:window-maximized="1"
     inkscape:current-layer="svg4" />
  <path
     d="M41.09 10.45l-2.77-3.36C37.76 6.43 36.93 6 36 6H12c-.93 0-1.76.43-2.31 1.09l-2.77 3.36C6.34 11.15 6 12.03 6 13v25c0 2.21 1.79 4 4 4h28c2.21 0 4-1.79 4-4V13c0-.97-.34-1.85-.91-2.55zM24 35L13 24h7v-4h8v4h7L24 35zM10.25 10l1.63-2h24l1.87 2h-27.5z"
     id="path2"
     style="fill:#E0115F" />
</svg>
