<?xml version="1.0" encoding="UTF-8" standalone="no"?>
<svg
   width="48"
   height="48"
   viewBox="0 0 48 48"
   version="1.1"
   id="svg4"
   sodipodi:docname="agenda.svg"
   inkscape:version="1.1.1 (3bf5ae0d25, 2021-09-20)"
   xmlns:inkscape="http://www.inkscape.org/namespaces/inkscape"
   xmlns:sodipodi="http://sodipodi.sourceforge.net/DTD/sodipodi-0.dtd"
   xmlns="http://www.w3.org/2000/svg"
   xmlns:svg="http://www.w3.org/2000/svg">
  <defs
     id="defs8" />
  <sodipodi:namedview
     id="namedview6"
     pagecolor="#ffffff"
     bordercolor="#666666"
     borderopacity="1.0"
     inkscape:pageshadow="2"
     inkscape:pageopacity="0.0"
     inkscape:pagecheckerboard="0"
     showgrid="false"
     inkscape:zoom="10.666667"
     inkscape:cx="21.234375"
     inkscape:cy="24.046875"
     inkscape:window-width="1366"
     inkscape:window-height="697"
     inkscape:window-x="-8"
     inkscape:window-y="-8"
     inkscape:window-maximized="1"
     inkscape:current-layer="svg4" />
  <path
     d="M18 22h-4v4h4v-4zm8 0h-4v4h4v-4zm8 0h-4v4h4v-4zm4-14h-2V4h-4v4H16V4h-4v4h-2c-2.22 0-3.98 1.8-3.98 4L6 40c0 2.2 1.78 4 4 4h28c2.2 0 4-1.8 4-4V12c0-2.2-1.8-4-4-4zm0 32H10V18h28v22z"
     id="path2"
     style="fill:#000080" />
</svg>
