<?xml version="1.0" encoding="UTF-8" standalone="no"?>
<svg
   version="1.1"
   width="24"
   height="24"
   viewBox="0 0 24 24"
   id="svg4"
   sodipodi:docname="budget.svg"
   inkscape:version="1.1.1 (3bf5ae0d25, 2021-09-20)"
   xmlns:inkscape="http://www.inkscape.org/namespaces/inkscape"
   xmlns:sodipodi="http://sodipodi.sourceforge.net/DTD/sodipodi-0.dtd"
   xmlns="http://www.w3.org/2000/svg"
   xmlns:svg="http://www.w3.org/2000/svg">
  <defs
     id="defs8" />
  <sodipodi:namedview
     id="namedview6"
     pagecolor="#ffffff"
     bordercolor="#666666"
     borderopacity="1.0"
     inkscape:pageshadow="2"
     inkscape:pageopacity="0.0"
     inkscape:pagecheckerboard="0"
     showgrid="false"
     inkscape:zoom="21.333333"
     inkscape:cx="10.617188"
     inkscape:cy="12.023438"
     inkscape:window-width="1366"
     inkscape:window-height="697"
     inkscape:window-x="-8"
     inkscape:window-y="-8"
     inkscape:window-maximized="1"
     inkscape:current-layer="svg4" />
  <path
     d="M8,7L6,2L10,4L12,2L14,4L18,2L16,7H8M16,22C10,22 8,22 8,22C2,22 3,18 3,18C3,18 4,11 8,9H16C20,11 21,18 21,18C21,18 22,22 16,22M7.5,12.5A1.5,1.5 0 0,0 9,14A1.5,1.5 0 0,0 10.5,12.5A1.5,1.5 0 0,0 9,11A1.5,1.5 0 0,0 7.5,12.5M16.5,18.5A1.5,1.5 0 0,0 15,17A1.5,1.5 0 0,0 13.5,18.5A1.5,1.5 0 0,0 15,20A1.5,1.5 0 0,0 16.5,18.5M16.5,12.35L15.15,11L7.5,18.65L8.87,20L16.5,12.35Z"
     id="path2"
     style="fill:#000080" />
</svg>
