<?xml version="1.0" encoding="UTF-8" standalone="no"?>
<svg
   version="1.1"
   width="24"
   height="24"
   viewBox="0 0 24 24"
   id="svg4"
   sodipodi:docname="GlobalRecon.svg"
   inkscape:version="1.1.1 (3bf5ae0d25, 2021-09-20)"
   xmlns:inkscape="http://www.inkscape.org/namespaces/inkscape"
   xmlns:sodipodi="http://sodipodi.sourceforge.net/DTD/sodipodi-0.dtd"
   xmlns="http://www.w3.org/2000/svg"
   xmlns:svg="http://www.w3.org/2000/svg">
  <defs
     id="defs8" />
  <sodipodi:namedview
     id="namedview6"
     pagecolor="#ffffff"
     bordercolor="#666666"
     borderopacity="1.0"
     inkscape:pageshadow="2"
     inkscape:pageopacity="0.0"
     inkscape:pagecheckerboard="0"
     showgrid="false"
     inkscape:zoom="21.333333"
     inkscape:cx="11.976562"
     inkscape:cy="12.023438"
     inkscape:window-width="1366"
     inkscape:window-height="697"
     inkscape:window-x="-8"
     inkscape:window-y="-8"
     inkscape:window-maximized="1"
     inkscape:current-layer="svg4" />
  <path
     d="M10.5 17V10H13.5V16.61C13.44 16.73 13.4 16.87 13.35 17H10.5M19 13C19.17 13 19.33 13 19.5 13.03V10H16.5V13.55C17.26 13.2 18.11 13 19 13M7.5 17V10H4.5V17H7.5M21.5 6L12 1L2.5 6V8H21.5V6M2.5 19V22H13.81C13.3 21.12 13 20.09 13 19H2.5M21.34 16L17.75 19.59L16.16 18L15 19.16L17.75 22.16L22.5 17.41L21.34 16Z"
     id="path2"
     style="fill:#0000ff" />
</svg>
