<?xml version="1.0" encoding="UTF-8" standalone="no"?>
<svg
   version="1.1"
   width="24"
   height="24"
   viewBox="0 0 24 24"
   id="svg4"
   sodipodi:docname="possetup.svg"
   inkscape:version="1.1.1 (3bf5ae0d25, 2021-09-20)"
   xmlns:inkscape="http://www.inkscape.org/namespaces/inkscape"
   xmlns:sodipodi="http://sodipodi.sourceforge.net/DTD/sodipodi-0.dtd"
   xmlns="http://www.w3.org/2000/svg"
   xmlns:svg="http://www.w3.org/2000/svg">
  <defs
     id="defs8" />
  <sodipodi:namedview
     id="namedview6"
     pagecolor="#ffffff"
     bordercolor="#666666"
     borderopacity="1.0"
     inkscape:pageshadow="2"
     inkscape:pageopacity="0.0"
     inkscape:pagecheckerboard="0"
     showgrid="false"
     inkscape:zoom="21.333333"
     inkscape:cx="11.976562"
     inkscape:cy="12.023438"
     inkscape:window-width="1366"
     inkscape:window-height="697"
     inkscape:window-x="-8"
     inkscape:window-y="-8"
     inkscape:window-maximized="1"
     inkscape:current-layer="svg4" />
  <path
     d="M21 2H3C1.9 2 1 2.9 1 4V16C1 17.11 1.9 18 3 18H10V20H8V22H16V20H14V18H21C22.11 18 23 17.11 23 16V4C23 2.9 22.11 2 21 2M21 16H3V4H21V16M15.84 8.2L14.83 9.21L12.76 7.18L13.77 6.16C13.97 5.95 14.31 5.94 14.55 6.16L15.84 7.41C16.05 7.62 16.06 7.96 15.84 8.2M8 11.91L12.17 7.72L14.24 9.8L10.08 14H8V11.91Z"
     id="path2"
     style="fill:#0000ff" />
</svg>
