<?xml version="1.0" encoding="UTF-8" standalone="no"?>
<svg
   version="1.1"
   width="24"
   height="24"
   viewBox="0 0 24 24"
   id="svg4"
   sodipodi:docname="salesman.svg"
   inkscape:version="1.1.1 (3bf5ae0d25, 2021-09-20)"
   xmlns:inkscape="http://www.inkscape.org/namespaces/inkscape"
   xmlns:sodipodi="http://sodipodi.sourceforge.net/DTD/sodipodi-0.dtd"
   xmlns="http://www.w3.org/2000/svg"
   xmlns:svg="http://www.w3.org/2000/svg">
  <defs
     id="defs8" />
  <sodipodi:namedview
     id="namedview6"
     pagecolor="#ffffff"
     bordercolor="#666666"
     borderopacity="1.0"
     inkscape:pageshadow="2"
     inkscape:pageopacity="0.0"
     inkscape:pagecheckerboard="0"
     showgrid="false"
     inkscape:zoom="21.333333"
     inkscape:cx="11.976562"
     inkscape:cy="12.023438"
     inkscape:window-width="1366"
     inkscape:window-height="697"
     inkscape:window-x="-8"
     inkscape:window-y="-8"
     inkscape:window-maximized="1"
     inkscape:current-layer="svg4" />
  <path
     d="M12 3C14.21 3 16 4.79 16 7S14.21 11 12 11 8 9.21 8 7 9.79 3 12 3M16 13.54C16 14.6 15.72 17.07 13.81 19.83L13 15L13.94 13.12C13.32 13.05 12.67 13 12 13S10.68 13.05 10.06 13.12L11 15L10.19 19.83C8.28 17.07 8 14.6 8 13.54C5.61 14.24 4 15.5 4 17V21H20V17C20 15.5 18.4 14.24 16 13.54Z"
     id="path2"
     style="fill:#0000ff" />
</svg>
