<?xml version="1.0" encoding="UTF-8" standalone="no"?>
<svg
   version="1.1"
   width="24"
   height="24"
   viewBox="0 0 24 24"
   id="svg4"
   sodipodi:docname="setupdoc.svg"
   inkscape:version="1.1.1 (3bf5ae0d25, 2021-09-20)"
   xmlns:inkscape="http://www.inkscape.org/namespaces/inkscape"
   xmlns:sodipodi="http://sodipodi.sourceforge.net/DTD/sodipodi-0.dtd"
   xmlns="http://www.w3.org/2000/svg"
   xmlns:svg="http://www.w3.org/2000/svg">
  <defs
     id="defs8" />
  <sodipodi:namedview
     id="namedview6"
     pagecolor="#ffffff"
     bordercolor="#666666"
     borderopacity="1.0"
     inkscape:pageshadow="2"
     inkscape:pageopacity="0.0"
     inkscape:pagecheckerboard="0"
     showgrid="false"
     inkscape:zoom="21.333333"
     inkscape:cx="11.976562"
     inkscape:cy="12.023438"
     inkscape:window-width="1366"
     inkscape:window-height="697"
     inkscape:window-x="-8"
     inkscape:window-y="-8"
     inkscape:window-maximized="1"
     inkscape:current-layer="svg4" />
  <path
     d="M10 20H6V4H13V9H18V12.1L20 10.1V8L14 2H6C4.9 2 4 2.9 4 4V20C4 21.1 4.9 22 6 22H10V20M20.2 13C20.3 13 20.5 13.1 20.6 13.2L21.9 14.5C22.1 14.7 22.1 15.1 21.9 15.3L20.9 16.3L18.8 14.2L19.8 13.2C19.9 13.1 20 13 20.2 13M20.2 16.9L14.1 23H12V20.9L18.1 14.8L20.2 16.9Z"
     id="path2"
     style="fill:#0000ff" />
</svg>
