<?xml version="1.0" encoding="UTF-8" standalone="no"?>
<svg
   version="1.1"
   width="24"
   height="24"
   viewBox="0 0 24 24"
   id="svg4"
   sodipodi:docname="setupreportingdates.svg"
   inkscape:version="1.1.1 (3bf5ae0d25, 2021-09-20)"
   xmlns:inkscape="http://www.inkscape.org/namespaces/inkscape"
   xmlns:sodipodi="http://sodipodi.sourceforge.net/DTD/sodipodi-0.dtd"
   xmlns="http://www.w3.org/2000/svg"
   xmlns:svg="http://www.w3.org/2000/svg">
  <defs
     id="defs8" />
  <sodipodi:namedview
     id="namedview6"
     pagecolor="#ffffff"
     bordercolor="#666666"
     borderopacity="1.0"
     inkscape:pageshadow="2"
     inkscape:pageopacity="0.0"
     inkscape:pagecheckerboard="0"
     showgrid="false"
     inkscape:zoom="21.333333"
     inkscape:cx="11.976562"
     inkscape:cy="12.023438"
     inkscape:window-width="1366"
     inkscape:window-height="697"
     inkscape:window-x="-8"
     inkscape:window-y="-8"
     inkscape:window-maximized="1"
     inkscape:current-layer="svg4" />
  <path
     d="M19,3H18V1H16V3H8V1H6V3H5A2,2 0 0,0 3,5V19A2,2 0 0,0 5,21H10V19H5V8H19V9H21V5A2,2 0 0,0 19,3M21.7,13.35L20.7,14.35L18.65,12.35L19.65,11.35C19.85,11.14 20.19,11.13 20.42,11.35L21.7,12.63C21.89,12.83 21.89,13.15 21.7,13.35M12,18.94L18.07,12.88L20.12,14.88L14.06,21H12V18.94Z"
     id="path2"
     style="fill:#0000ff" />
</svg>
