<?xml version="1.0" encoding="UTF-8" standalone="no"?>
<svg
   version="1.1"
   width="24"
   height="24"
   viewBox="0 0 24 24"
   id="svg4"
   sodipodi:docname="calculator.svg"
   inkscape:version="1.1.1 (3bf5ae0d25, 2021-09-20)"
   xmlns:inkscape="http://www.inkscape.org/namespaces/inkscape"
   xmlns:sodipodi="http://sodipodi.sourceforge.net/DTD/sodipodi-0.dtd"
   xmlns="http://www.w3.org/2000/svg"
   xmlns:svg="http://www.w3.org/2000/svg">
  <defs
     id="defs8" />
  <sodipodi:namedview
     id="namedview6"
     pagecolor="#ffffff"
     bordercolor="#666666"
     borderopacity="1.0"
     inkscape:pageshadow="2"
     inkscape:pageopacity="0.0"
     inkscape:pagecheckerboard="0"
     showgrid="false"
     inkscape:zoom="21.333333"
     inkscape:cx="11.976562"
     inkscape:cy="12.023438"
     inkscape:window-width="1366"
     inkscape:window-height="697"
     inkscape:window-x="-8"
     inkscape:window-y="-8"
     inkscape:window-maximized="1"
     inkscape:current-layer="svg4" />
  <path
     d="M7,2H17A2,2 0 0,1 19,4V20A2,2 0 0,1 17,22H7A2,2 0 0,1 5,20V4A2,2 0 0,1 7,2M7,4V8H17V4H7M7,10V12H9V10H7M11,10V12H13V10H11M15,10V12H17V10H15M7,14V16H9V14H7M11,14V16H13V14H11M15,14V16H17V14H15M7,18V20H9V18H7M11,18V20H13V18H11M15,18V20H17V18H15Z"
     id="path2"
     style="fill:#800000" />
</svg>
