<?xml version="1.0" encoding="UTF-8" standalone="no"?>
<svg
   width="48"
   height="48"
   viewBox="0 0 48 48"
   version="1.1"
   id="svg4"
   sodipodi:docname="Contact.svg"
   inkscape:version="1.1.1 (3bf5ae0d25, 2021-09-20)"
   xmlns:inkscape="http://www.inkscape.org/namespaces/inkscape"
   xmlns:sodipodi="http://sodipodi.sourceforge.net/DTD/sodipodi-0.dtd"
   xmlns="http://www.w3.org/2000/svg"
   xmlns:svg="http://www.w3.org/2000/svg">
  <defs
     id="defs8" />
  <sodipodi:namedview
     id="namedview6"
     pagecolor="#ffffff"
     bordercolor="#666666"
     borderopacity="1.0"
     inkscape:pageshadow="2"
     inkscape:pageopacity="0.0"
     inkscape:pagecheckerboard="0"
     showgrid="false"
     inkscape:zoom="10.666667"
     inkscape:cx="23.953125"
     inkscape:cy="24.046875"
     inkscape:window-width="1366"
     inkscape:window-height="697"
     inkscape:window-x="-8"
     inkscape:window-y="-8"
     inkscape:window-maximized="1"
     inkscape:current-layer="svg4" />
  <path
     d="M33 26c-2.41 0-6.15.67-9 2.01-2.85-1.34-6.59-2.01-9-2.01-4.33 0-13 2.17-13 6.5V38h44v-5.5c0-4.33-8.67-6.5-13-6.5zm-8 9H5v-2.5c0-1.07 5.12-3.5 10-3.5s10 2.43 10 3.5V35zm18 0H28v-2.5c0-.91-.4-1.72-1.04-2.44C28.73 29.46 30.89 29 33 29c4.88 0 10 2.43 10 3.5V35zM15 24c3.87 0 7-3.14 7-7s-3.13-7-7-7c-3.86 0-7 3.14-7 7s3.14 7 7 7zm0-11c2.21 0 4 1.79 4 4s-1.79 4-4 4-4-1.79-4-4 1.79-4 4-4zm18 11c3.87 0 7-3.14 7-7s-3.13-7-7-7c-3.86 0-7 3.14-7 7s3.14 7 7 7zm0-11c2.21 0 4 1.79 4 4s-1.79 4-4 4-4-1.79-4-4 1.79-4 4-4z"
     id="path2"
     style="fill:#800000" />
</svg>
