<?xml version="1.0" encoding="UTF-8" standalone="no"?>
<svg
   width="48"
   height="48"
   viewBox="0 0 48 48"
   version="1.1"
   id="svg4"
   sodipodi:docname="TRN_3380.svg"
   inkscape:version="1.1.1 (3bf5ae0d25, 2021-09-20)"
   xmlns:inkscape="http://www.inkscape.org/namespaces/inkscape"
   xmlns:sodipodi="http://sodipodi.sourceforge.net/DTD/sodipodi-0.dtd"
   xmlns="http://www.w3.org/2000/svg"
   xmlns:svg="http://www.w3.org/2000/svg">
  <defs
     id="defs8" />
  <sodipodi:namedview
     id="namedview6"
     pagecolor="#ffffff"
     bordercolor="#666666"
     borderopacity="1.0"
     inkscape:pageshadow="2"
     inkscape:pageopacity="0.0"
     inkscape:pagecheckerboard="0"
     showgrid="false"
     inkscape:zoom="10.666667"
     inkscape:cx="23.953125"
     inkscape:cy="24.046875"
     inkscape:window-width="1366"
     inkscape:window-height="697"
     inkscape:window-x="-8"
     inkscape:window-y="-8"
     inkscape:window-maximized="1"
     inkscape:current-layer="svg4" />
  <path
     d="M41 22h-3v-8c0-2.21-1.79-4-4-4h-8V7c0-2.76-2.24-5-5-5s-5 2.24-5 5v3H8c-2.21 0-3.98 1.79-3.98 4l-.01 7.6H7c2.98 0 5.4 2.42 5.4 5.4S9.98 32.4 7 32.4H4.01L4 40c0 2.21 1.79 4 4 4h7.6v-3c0-2.98 2.42-5.4 5.4-5.4 2.98 0 5.4 2.42 5.4 5.4v3H34c2.21 0 4-1.79 4-4v-8h3c2.76 0 5-2.24 5-5s-2.24-5-5-5z"
     id="path2"
     style="fill:#800000" />
</svg>
